G75*
%MOIN*%
%OFA0B0*%
%FSLAX25Y25*%
%IPPOS*%
%LPD*%
%AMOC8*
5,1,8,0,0,1.08239X$1,22.5*
%
%ADD10C,0.00000*%
%ADD11OC8,0.05600*%
%ADD12R,0.11811X0.11811*%
%ADD13C,0.11811*%
%ADD14R,0.06299X0.06299*%
%ADD15C,0.06299*%
%ADD16C,0.08661*%
%ADD17R,0.10630X0.10630*%
%ADD18C,0.10630*%
%ADD19R,0.05512X0.05512*%
%ADD20C,0.05512*%
%ADD21R,0.07874X0.07874*%
%ADD22C,0.07874*%
%ADD23C,0.09055*%
%ADD24R,0.05906X0.05906*%
%ADD25C,0.05906*%
%ADD26C,0.07500*%
%ADD27C,0.15000*%
%ADD28C,0.04000*%
D10*
X0001000Y0001000D02*
X0001000Y0201000D01*
X0301000Y0201000D01*
X0301000Y0001000D01*
X0001000Y0001000D01*
X0009750Y0016000D02*
X0009752Y0016158D01*
X0009758Y0016315D01*
X0009768Y0016473D01*
X0009782Y0016630D01*
X0009800Y0016786D01*
X0009821Y0016943D01*
X0009847Y0017098D01*
X0009877Y0017253D01*
X0009910Y0017407D01*
X0009948Y0017560D01*
X0009989Y0017713D01*
X0010034Y0017864D01*
X0010083Y0018014D01*
X0010136Y0018162D01*
X0010192Y0018310D01*
X0010253Y0018455D01*
X0010316Y0018600D01*
X0010384Y0018742D01*
X0010455Y0018883D01*
X0010529Y0019022D01*
X0010607Y0019159D01*
X0010689Y0019294D01*
X0010773Y0019427D01*
X0010862Y0019558D01*
X0010953Y0019686D01*
X0011048Y0019813D01*
X0011145Y0019936D01*
X0011246Y0020058D01*
X0011350Y0020176D01*
X0011457Y0020292D01*
X0011567Y0020405D01*
X0011679Y0020516D01*
X0011795Y0020623D01*
X0011913Y0020728D01*
X0012033Y0020830D01*
X0012156Y0020928D01*
X0012282Y0021024D01*
X0012410Y0021116D01*
X0012540Y0021205D01*
X0012672Y0021291D01*
X0012807Y0021373D01*
X0012944Y0021452D01*
X0013082Y0021527D01*
X0013222Y0021599D01*
X0013365Y0021667D01*
X0013508Y0021732D01*
X0013654Y0021793D01*
X0013801Y0021850D01*
X0013949Y0021904D01*
X0014099Y0021954D01*
X0014249Y0022000D01*
X0014401Y0022042D01*
X0014554Y0022081D01*
X0014708Y0022115D01*
X0014863Y0022146D01*
X0015018Y0022172D01*
X0015174Y0022195D01*
X0015331Y0022214D01*
X0015488Y0022229D01*
X0015645Y0022240D01*
X0015803Y0022247D01*
X0015961Y0022250D01*
X0016118Y0022249D01*
X0016276Y0022244D01*
X0016433Y0022235D01*
X0016591Y0022222D01*
X0016747Y0022205D01*
X0016904Y0022184D01*
X0017059Y0022160D01*
X0017214Y0022131D01*
X0017369Y0022098D01*
X0017522Y0022062D01*
X0017675Y0022021D01*
X0017826Y0021977D01*
X0017976Y0021929D01*
X0018125Y0021878D01*
X0018273Y0021822D01*
X0018419Y0021763D01*
X0018564Y0021700D01*
X0018707Y0021633D01*
X0018848Y0021563D01*
X0018987Y0021490D01*
X0019125Y0021413D01*
X0019261Y0021332D01*
X0019394Y0021248D01*
X0019525Y0021161D01*
X0019654Y0021070D01*
X0019781Y0020976D01*
X0019906Y0020879D01*
X0020027Y0020779D01*
X0020147Y0020676D01*
X0020263Y0020570D01*
X0020377Y0020461D01*
X0020489Y0020349D01*
X0020597Y0020235D01*
X0020702Y0020117D01*
X0020805Y0019997D01*
X0020904Y0019875D01*
X0021000Y0019750D01*
X0021093Y0019622D01*
X0021183Y0019493D01*
X0021269Y0019361D01*
X0021353Y0019227D01*
X0021432Y0019091D01*
X0021509Y0018953D01*
X0021581Y0018813D01*
X0021650Y0018671D01*
X0021716Y0018528D01*
X0021778Y0018383D01*
X0021836Y0018236D01*
X0021891Y0018088D01*
X0021942Y0017939D01*
X0021989Y0017788D01*
X0022032Y0017637D01*
X0022071Y0017484D01*
X0022107Y0017330D01*
X0022138Y0017176D01*
X0022166Y0017021D01*
X0022190Y0016865D01*
X0022210Y0016708D01*
X0022226Y0016551D01*
X0022238Y0016394D01*
X0022246Y0016237D01*
X0022250Y0016079D01*
X0022250Y0015921D01*
X0022246Y0015763D01*
X0022238Y0015606D01*
X0022226Y0015449D01*
X0022210Y0015292D01*
X0022190Y0015135D01*
X0022166Y0014979D01*
X0022138Y0014824D01*
X0022107Y0014670D01*
X0022071Y0014516D01*
X0022032Y0014363D01*
X0021989Y0014212D01*
X0021942Y0014061D01*
X0021891Y0013912D01*
X0021836Y0013764D01*
X0021778Y0013617D01*
X0021716Y0013472D01*
X0021650Y0013329D01*
X0021581Y0013187D01*
X0021509Y0013047D01*
X0021432Y0012909D01*
X0021353Y0012773D01*
X0021269Y0012639D01*
X0021183Y0012507D01*
X0021093Y0012378D01*
X0021000Y0012250D01*
X0020904Y0012125D01*
X0020805Y0012003D01*
X0020702Y0011883D01*
X0020597Y0011765D01*
X0020489Y0011651D01*
X0020377Y0011539D01*
X0020263Y0011430D01*
X0020147Y0011324D01*
X0020027Y0011221D01*
X0019906Y0011121D01*
X0019781Y0011024D01*
X0019654Y0010930D01*
X0019525Y0010839D01*
X0019394Y0010752D01*
X0019261Y0010668D01*
X0019125Y0010587D01*
X0018987Y0010510D01*
X0018848Y0010437D01*
X0018707Y0010367D01*
X0018564Y0010300D01*
X0018419Y0010237D01*
X0018273Y0010178D01*
X0018125Y0010122D01*
X0017976Y0010071D01*
X0017826Y0010023D01*
X0017675Y0009979D01*
X0017522Y0009938D01*
X0017369Y0009902D01*
X0017214Y0009869D01*
X0017059Y0009840D01*
X0016904Y0009816D01*
X0016747Y0009795D01*
X0016591Y0009778D01*
X0016433Y0009765D01*
X0016276Y0009756D01*
X0016118Y0009751D01*
X0015961Y0009750D01*
X0015803Y0009753D01*
X0015645Y0009760D01*
X0015488Y0009771D01*
X0015331Y0009786D01*
X0015174Y0009805D01*
X0015018Y0009828D01*
X0014863Y0009854D01*
X0014708Y0009885D01*
X0014554Y0009919D01*
X0014401Y0009958D01*
X0014249Y0010000D01*
X0014099Y0010046D01*
X0013949Y0010096D01*
X0013801Y0010150D01*
X0013654Y0010207D01*
X0013508Y0010268D01*
X0013365Y0010333D01*
X0013222Y0010401D01*
X0013082Y0010473D01*
X0012944Y0010548D01*
X0012807Y0010627D01*
X0012672Y0010709D01*
X0012540Y0010795D01*
X0012410Y0010884D01*
X0012282Y0010976D01*
X0012156Y0011072D01*
X0012033Y0011170D01*
X0011913Y0011272D01*
X0011795Y0011377D01*
X0011679Y0011484D01*
X0011567Y0011595D01*
X0011457Y0011708D01*
X0011350Y0011824D01*
X0011246Y0011942D01*
X0011145Y0012064D01*
X0011048Y0012187D01*
X0010953Y0012314D01*
X0010862Y0012442D01*
X0010773Y0012573D01*
X0010689Y0012706D01*
X0010607Y0012841D01*
X0010529Y0012978D01*
X0010455Y0013117D01*
X0010384Y0013258D01*
X0010316Y0013400D01*
X0010253Y0013545D01*
X0010192Y0013690D01*
X0010136Y0013838D01*
X0010083Y0013986D01*
X0010034Y0014136D01*
X0009989Y0014287D01*
X0009948Y0014440D01*
X0009910Y0014593D01*
X0009877Y0014747D01*
X0009847Y0014902D01*
X0009821Y0015057D01*
X0009800Y0015214D01*
X0009782Y0015370D01*
X0009768Y0015527D01*
X0009758Y0015685D01*
X0009752Y0015842D01*
X0009750Y0016000D01*
X0009750Y0186000D02*
X0009752Y0186158D01*
X0009758Y0186315D01*
X0009768Y0186473D01*
X0009782Y0186630D01*
X0009800Y0186786D01*
X0009821Y0186943D01*
X0009847Y0187098D01*
X0009877Y0187253D01*
X0009910Y0187407D01*
X0009948Y0187560D01*
X0009989Y0187713D01*
X0010034Y0187864D01*
X0010083Y0188014D01*
X0010136Y0188162D01*
X0010192Y0188310D01*
X0010253Y0188455D01*
X0010316Y0188600D01*
X0010384Y0188742D01*
X0010455Y0188883D01*
X0010529Y0189022D01*
X0010607Y0189159D01*
X0010689Y0189294D01*
X0010773Y0189427D01*
X0010862Y0189558D01*
X0010953Y0189686D01*
X0011048Y0189813D01*
X0011145Y0189936D01*
X0011246Y0190058D01*
X0011350Y0190176D01*
X0011457Y0190292D01*
X0011567Y0190405D01*
X0011679Y0190516D01*
X0011795Y0190623D01*
X0011913Y0190728D01*
X0012033Y0190830D01*
X0012156Y0190928D01*
X0012282Y0191024D01*
X0012410Y0191116D01*
X0012540Y0191205D01*
X0012672Y0191291D01*
X0012807Y0191373D01*
X0012944Y0191452D01*
X0013082Y0191527D01*
X0013222Y0191599D01*
X0013365Y0191667D01*
X0013508Y0191732D01*
X0013654Y0191793D01*
X0013801Y0191850D01*
X0013949Y0191904D01*
X0014099Y0191954D01*
X0014249Y0192000D01*
X0014401Y0192042D01*
X0014554Y0192081D01*
X0014708Y0192115D01*
X0014863Y0192146D01*
X0015018Y0192172D01*
X0015174Y0192195D01*
X0015331Y0192214D01*
X0015488Y0192229D01*
X0015645Y0192240D01*
X0015803Y0192247D01*
X0015961Y0192250D01*
X0016118Y0192249D01*
X0016276Y0192244D01*
X0016433Y0192235D01*
X0016591Y0192222D01*
X0016747Y0192205D01*
X0016904Y0192184D01*
X0017059Y0192160D01*
X0017214Y0192131D01*
X0017369Y0192098D01*
X0017522Y0192062D01*
X0017675Y0192021D01*
X0017826Y0191977D01*
X0017976Y0191929D01*
X0018125Y0191878D01*
X0018273Y0191822D01*
X0018419Y0191763D01*
X0018564Y0191700D01*
X0018707Y0191633D01*
X0018848Y0191563D01*
X0018987Y0191490D01*
X0019125Y0191413D01*
X0019261Y0191332D01*
X0019394Y0191248D01*
X0019525Y0191161D01*
X0019654Y0191070D01*
X0019781Y0190976D01*
X0019906Y0190879D01*
X0020027Y0190779D01*
X0020147Y0190676D01*
X0020263Y0190570D01*
X0020377Y0190461D01*
X0020489Y0190349D01*
X0020597Y0190235D01*
X0020702Y0190117D01*
X0020805Y0189997D01*
X0020904Y0189875D01*
X0021000Y0189750D01*
X0021093Y0189622D01*
X0021183Y0189493D01*
X0021269Y0189361D01*
X0021353Y0189227D01*
X0021432Y0189091D01*
X0021509Y0188953D01*
X0021581Y0188813D01*
X0021650Y0188671D01*
X0021716Y0188528D01*
X0021778Y0188383D01*
X0021836Y0188236D01*
X0021891Y0188088D01*
X0021942Y0187939D01*
X0021989Y0187788D01*
X0022032Y0187637D01*
X0022071Y0187484D01*
X0022107Y0187330D01*
X0022138Y0187176D01*
X0022166Y0187021D01*
X0022190Y0186865D01*
X0022210Y0186708D01*
X0022226Y0186551D01*
X0022238Y0186394D01*
X0022246Y0186237D01*
X0022250Y0186079D01*
X0022250Y0185921D01*
X0022246Y0185763D01*
X0022238Y0185606D01*
X0022226Y0185449D01*
X0022210Y0185292D01*
X0022190Y0185135D01*
X0022166Y0184979D01*
X0022138Y0184824D01*
X0022107Y0184670D01*
X0022071Y0184516D01*
X0022032Y0184363D01*
X0021989Y0184212D01*
X0021942Y0184061D01*
X0021891Y0183912D01*
X0021836Y0183764D01*
X0021778Y0183617D01*
X0021716Y0183472D01*
X0021650Y0183329D01*
X0021581Y0183187D01*
X0021509Y0183047D01*
X0021432Y0182909D01*
X0021353Y0182773D01*
X0021269Y0182639D01*
X0021183Y0182507D01*
X0021093Y0182378D01*
X0021000Y0182250D01*
X0020904Y0182125D01*
X0020805Y0182003D01*
X0020702Y0181883D01*
X0020597Y0181765D01*
X0020489Y0181651D01*
X0020377Y0181539D01*
X0020263Y0181430D01*
X0020147Y0181324D01*
X0020027Y0181221D01*
X0019906Y0181121D01*
X0019781Y0181024D01*
X0019654Y0180930D01*
X0019525Y0180839D01*
X0019394Y0180752D01*
X0019261Y0180668D01*
X0019125Y0180587D01*
X0018987Y0180510D01*
X0018848Y0180437D01*
X0018707Y0180367D01*
X0018564Y0180300D01*
X0018419Y0180237D01*
X0018273Y0180178D01*
X0018125Y0180122D01*
X0017976Y0180071D01*
X0017826Y0180023D01*
X0017675Y0179979D01*
X0017522Y0179938D01*
X0017369Y0179902D01*
X0017214Y0179869D01*
X0017059Y0179840D01*
X0016904Y0179816D01*
X0016747Y0179795D01*
X0016591Y0179778D01*
X0016433Y0179765D01*
X0016276Y0179756D01*
X0016118Y0179751D01*
X0015961Y0179750D01*
X0015803Y0179753D01*
X0015645Y0179760D01*
X0015488Y0179771D01*
X0015331Y0179786D01*
X0015174Y0179805D01*
X0015018Y0179828D01*
X0014863Y0179854D01*
X0014708Y0179885D01*
X0014554Y0179919D01*
X0014401Y0179958D01*
X0014249Y0180000D01*
X0014099Y0180046D01*
X0013949Y0180096D01*
X0013801Y0180150D01*
X0013654Y0180207D01*
X0013508Y0180268D01*
X0013365Y0180333D01*
X0013222Y0180401D01*
X0013082Y0180473D01*
X0012944Y0180548D01*
X0012807Y0180627D01*
X0012672Y0180709D01*
X0012540Y0180795D01*
X0012410Y0180884D01*
X0012282Y0180976D01*
X0012156Y0181072D01*
X0012033Y0181170D01*
X0011913Y0181272D01*
X0011795Y0181377D01*
X0011679Y0181484D01*
X0011567Y0181595D01*
X0011457Y0181708D01*
X0011350Y0181824D01*
X0011246Y0181942D01*
X0011145Y0182064D01*
X0011048Y0182187D01*
X0010953Y0182314D01*
X0010862Y0182442D01*
X0010773Y0182573D01*
X0010689Y0182706D01*
X0010607Y0182841D01*
X0010529Y0182978D01*
X0010455Y0183117D01*
X0010384Y0183258D01*
X0010316Y0183400D01*
X0010253Y0183545D01*
X0010192Y0183690D01*
X0010136Y0183838D01*
X0010083Y0183986D01*
X0010034Y0184136D01*
X0009989Y0184287D01*
X0009948Y0184440D01*
X0009910Y0184593D01*
X0009877Y0184747D01*
X0009847Y0184902D01*
X0009821Y0185057D01*
X0009800Y0185214D01*
X0009782Y0185370D01*
X0009768Y0185527D01*
X0009758Y0185685D01*
X0009752Y0185842D01*
X0009750Y0186000D01*
X0279750Y0186000D02*
X0279752Y0186158D01*
X0279758Y0186315D01*
X0279768Y0186473D01*
X0279782Y0186630D01*
X0279800Y0186786D01*
X0279821Y0186943D01*
X0279847Y0187098D01*
X0279877Y0187253D01*
X0279910Y0187407D01*
X0279948Y0187560D01*
X0279989Y0187713D01*
X0280034Y0187864D01*
X0280083Y0188014D01*
X0280136Y0188162D01*
X0280192Y0188310D01*
X0280253Y0188455D01*
X0280316Y0188600D01*
X0280384Y0188742D01*
X0280455Y0188883D01*
X0280529Y0189022D01*
X0280607Y0189159D01*
X0280689Y0189294D01*
X0280773Y0189427D01*
X0280862Y0189558D01*
X0280953Y0189686D01*
X0281048Y0189813D01*
X0281145Y0189936D01*
X0281246Y0190058D01*
X0281350Y0190176D01*
X0281457Y0190292D01*
X0281567Y0190405D01*
X0281679Y0190516D01*
X0281795Y0190623D01*
X0281913Y0190728D01*
X0282033Y0190830D01*
X0282156Y0190928D01*
X0282282Y0191024D01*
X0282410Y0191116D01*
X0282540Y0191205D01*
X0282672Y0191291D01*
X0282807Y0191373D01*
X0282944Y0191452D01*
X0283082Y0191527D01*
X0283222Y0191599D01*
X0283365Y0191667D01*
X0283508Y0191732D01*
X0283654Y0191793D01*
X0283801Y0191850D01*
X0283949Y0191904D01*
X0284099Y0191954D01*
X0284249Y0192000D01*
X0284401Y0192042D01*
X0284554Y0192081D01*
X0284708Y0192115D01*
X0284863Y0192146D01*
X0285018Y0192172D01*
X0285174Y0192195D01*
X0285331Y0192214D01*
X0285488Y0192229D01*
X0285645Y0192240D01*
X0285803Y0192247D01*
X0285961Y0192250D01*
X0286118Y0192249D01*
X0286276Y0192244D01*
X0286433Y0192235D01*
X0286591Y0192222D01*
X0286747Y0192205D01*
X0286904Y0192184D01*
X0287059Y0192160D01*
X0287214Y0192131D01*
X0287369Y0192098D01*
X0287522Y0192062D01*
X0287675Y0192021D01*
X0287826Y0191977D01*
X0287976Y0191929D01*
X0288125Y0191878D01*
X0288273Y0191822D01*
X0288419Y0191763D01*
X0288564Y0191700D01*
X0288707Y0191633D01*
X0288848Y0191563D01*
X0288987Y0191490D01*
X0289125Y0191413D01*
X0289261Y0191332D01*
X0289394Y0191248D01*
X0289525Y0191161D01*
X0289654Y0191070D01*
X0289781Y0190976D01*
X0289906Y0190879D01*
X0290027Y0190779D01*
X0290147Y0190676D01*
X0290263Y0190570D01*
X0290377Y0190461D01*
X0290489Y0190349D01*
X0290597Y0190235D01*
X0290702Y0190117D01*
X0290805Y0189997D01*
X0290904Y0189875D01*
X0291000Y0189750D01*
X0291093Y0189622D01*
X0291183Y0189493D01*
X0291269Y0189361D01*
X0291353Y0189227D01*
X0291432Y0189091D01*
X0291509Y0188953D01*
X0291581Y0188813D01*
X0291650Y0188671D01*
X0291716Y0188528D01*
X0291778Y0188383D01*
X0291836Y0188236D01*
X0291891Y0188088D01*
X0291942Y0187939D01*
X0291989Y0187788D01*
X0292032Y0187637D01*
X0292071Y0187484D01*
X0292107Y0187330D01*
X0292138Y0187176D01*
X0292166Y0187021D01*
X0292190Y0186865D01*
X0292210Y0186708D01*
X0292226Y0186551D01*
X0292238Y0186394D01*
X0292246Y0186237D01*
X0292250Y0186079D01*
X0292250Y0185921D01*
X0292246Y0185763D01*
X0292238Y0185606D01*
X0292226Y0185449D01*
X0292210Y0185292D01*
X0292190Y0185135D01*
X0292166Y0184979D01*
X0292138Y0184824D01*
X0292107Y0184670D01*
X0292071Y0184516D01*
X0292032Y0184363D01*
X0291989Y0184212D01*
X0291942Y0184061D01*
X0291891Y0183912D01*
X0291836Y0183764D01*
X0291778Y0183617D01*
X0291716Y0183472D01*
X0291650Y0183329D01*
X0291581Y0183187D01*
X0291509Y0183047D01*
X0291432Y0182909D01*
X0291353Y0182773D01*
X0291269Y0182639D01*
X0291183Y0182507D01*
X0291093Y0182378D01*
X0291000Y0182250D01*
X0290904Y0182125D01*
X0290805Y0182003D01*
X0290702Y0181883D01*
X0290597Y0181765D01*
X0290489Y0181651D01*
X0290377Y0181539D01*
X0290263Y0181430D01*
X0290147Y0181324D01*
X0290027Y0181221D01*
X0289906Y0181121D01*
X0289781Y0181024D01*
X0289654Y0180930D01*
X0289525Y0180839D01*
X0289394Y0180752D01*
X0289261Y0180668D01*
X0289125Y0180587D01*
X0288987Y0180510D01*
X0288848Y0180437D01*
X0288707Y0180367D01*
X0288564Y0180300D01*
X0288419Y0180237D01*
X0288273Y0180178D01*
X0288125Y0180122D01*
X0287976Y0180071D01*
X0287826Y0180023D01*
X0287675Y0179979D01*
X0287522Y0179938D01*
X0287369Y0179902D01*
X0287214Y0179869D01*
X0287059Y0179840D01*
X0286904Y0179816D01*
X0286747Y0179795D01*
X0286591Y0179778D01*
X0286433Y0179765D01*
X0286276Y0179756D01*
X0286118Y0179751D01*
X0285961Y0179750D01*
X0285803Y0179753D01*
X0285645Y0179760D01*
X0285488Y0179771D01*
X0285331Y0179786D01*
X0285174Y0179805D01*
X0285018Y0179828D01*
X0284863Y0179854D01*
X0284708Y0179885D01*
X0284554Y0179919D01*
X0284401Y0179958D01*
X0284249Y0180000D01*
X0284099Y0180046D01*
X0283949Y0180096D01*
X0283801Y0180150D01*
X0283654Y0180207D01*
X0283508Y0180268D01*
X0283365Y0180333D01*
X0283222Y0180401D01*
X0283082Y0180473D01*
X0282944Y0180548D01*
X0282807Y0180627D01*
X0282672Y0180709D01*
X0282540Y0180795D01*
X0282410Y0180884D01*
X0282282Y0180976D01*
X0282156Y0181072D01*
X0282033Y0181170D01*
X0281913Y0181272D01*
X0281795Y0181377D01*
X0281679Y0181484D01*
X0281567Y0181595D01*
X0281457Y0181708D01*
X0281350Y0181824D01*
X0281246Y0181942D01*
X0281145Y0182064D01*
X0281048Y0182187D01*
X0280953Y0182314D01*
X0280862Y0182442D01*
X0280773Y0182573D01*
X0280689Y0182706D01*
X0280607Y0182841D01*
X0280529Y0182978D01*
X0280455Y0183117D01*
X0280384Y0183258D01*
X0280316Y0183400D01*
X0280253Y0183545D01*
X0280192Y0183690D01*
X0280136Y0183838D01*
X0280083Y0183986D01*
X0280034Y0184136D01*
X0279989Y0184287D01*
X0279948Y0184440D01*
X0279910Y0184593D01*
X0279877Y0184747D01*
X0279847Y0184902D01*
X0279821Y0185057D01*
X0279800Y0185214D01*
X0279782Y0185370D01*
X0279768Y0185527D01*
X0279758Y0185685D01*
X0279752Y0185842D01*
X0279750Y0186000D01*
X0279750Y0016000D02*
X0279752Y0016158D01*
X0279758Y0016315D01*
X0279768Y0016473D01*
X0279782Y0016630D01*
X0279800Y0016786D01*
X0279821Y0016943D01*
X0279847Y0017098D01*
X0279877Y0017253D01*
X0279910Y0017407D01*
X0279948Y0017560D01*
X0279989Y0017713D01*
X0280034Y0017864D01*
X0280083Y0018014D01*
X0280136Y0018162D01*
X0280192Y0018310D01*
X0280253Y0018455D01*
X0280316Y0018600D01*
X0280384Y0018742D01*
X0280455Y0018883D01*
X0280529Y0019022D01*
X0280607Y0019159D01*
X0280689Y0019294D01*
X0280773Y0019427D01*
X0280862Y0019558D01*
X0280953Y0019686D01*
X0281048Y0019813D01*
X0281145Y0019936D01*
X0281246Y0020058D01*
X0281350Y0020176D01*
X0281457Y0020292D01*
X0281567Y0020405D01*
X0281679Y0020516D01*
X0281795Y0020623D01*
X0281913Y0020728D01*
X0282033Y0020830D01*
X0282156Y0020928D01*
X0282282Y0021024D01*
X0282410Y0021116D01*
X0282540Y0021205D01*
X0282672Y0021291D01*
X0282807Y0021373D01*
X0282944Y0021452D01*
X0283082Y0021527D01*
X0283222Y0021599D01*
X0283365Y0021667D01*
X0283508Y0021732D01*
X0283654Y0021793D01*
X0283801Y0021850D01*
X0283949Y0021904D01*
X0284099Y0021954D01*
X0284249Y0022000D01*
X0284401Y0022042D01*
X0284554Y0022081D01*
X0284708Y0022115D01*
X0284863Y0022146D01*
X0285018Y0022172D01*
X0285174Y0022195D01*
X0285331Y0022214D01*
X0285488Y0022229D01*
X0285645Y0022240D01*
X0285803Y0022247D01*
X0285961Y0022250D01*
X0286118Y0022249D01*
X0286276Y0022244D01*
X0286433Y0022235D01*
X0286591Y0022222D01*
X0286747Y0022205D01*
X0286904Y0022184D01*
X0287059Y0022160D01*
X0287214Y0022131D01*
X0287369Y0022098D01*
X0287522Y0022062D01*
X0287675Y0022021D01*
X0287826Y0021977D01*
X0287976Y0021929D01*
X0288125Y0021878D01*
X0288273Y0021822D01*
X0288419Y0021763D01*
X0288564Y0021700D01*
X0288707Y0021633D01*
X0288848Y0021563D01*
X0288987Y0021490D01*
X0289125Y0021413D01*
X0289261Y0021332D01*
X0289394Y0021248D01*
X0289525Y0021161D01*
X0289654Y0021070D01*
X0289781Y0020976D01*
X0289906Y0020879D01*
X0290027Y0020779D01*
X0290147Y0020676D01*
X0290263Y0020570D01*
X0290377Y0020461D01*
X0290489Y0020349D01*
X0290597Y0020235D01*
X0290702Y0020117D01*
X0290805Y0019997D01*
X0290904Y0019875D01*
X0291000Y0019750D01*
X0291093Y0019622D01*
X0291183Y0019493D01*
X0291269Y0019361D01*
X0291353Y0019227D01*
X0291432Y0019091D01*
X0291509Y0018953D01*
X0291581Y0018813D01*
X0291650Y0018671D01*
X0291716Y0018528D01*
X0291778Y0018383D01*
X0291836Y0018236D01*
X0291891Y0018088D01*
X0291942Y0017939D01*
X0291989Y0017788D01*
X0292032Y0017637D01*
X0292071Y0017484D01*
X0292107Y0017330D01*
X0292138Y0017176D01*
X0292166Y0017021D01*
X0292190Y0016865D01*
X0292210Y0016708D01*
X0292226Y0016551D01*
X0292238Y0016394D01*
X0292246Y0016237D01*
X0292250Y0016079D01*
X0292250Y0015921D01*
X0292246Y0015763D01*
X0292238Y0015606D01*
X0292226Y0015449D01*
X0292210Y0015292D01*
X0292190Y0015135D01*
X0292166Y0014979D01*
X0292138Y0014824D01*
X0292107Y0014670D01*
X0292071Y0014516D01*
X0292032Y0014363D01*
X0291989Y0014212D01*
X0291942Y0014061D01*
X0291891Y0013912D01*
X0291836Y0013764D01*
X0291778Y0013617D01*
X0291716Y0013472D01*
X0291650Y0013329D01*
X0291581Y0013187D01*
X0291509Y0013047D01*
X0291432Y0012909D01*
X0291353Y0012773D01*
X0291269Y0012639D01*
X0291183Y0012507D01*
X0291093Y0012378D01*
X0291000Y0012250D01*
X0290904Y0012125D01*
X0290805Y0012003D01*
X0290702Y0011883D01*
X0290597Y0011765D01*
X0290489Y0011651D01*
X0290377Y0011539D01*
X0290263Y0011430D01*
X0290147Y0011324D01*
X0290027Y0011221D01*
X0289906Y0011121D01*
X0289781Y0011024D01*
X0289654Y0010930D01*
X0289525Y0010839D01*
X0289394Y0010752D01*
X0289261Y0010668D01*
X0289125Y0010587D01*
X0288987Y0010510D01*
X0288848Y0010437D01*
X0288707Y0010367D01*
X0288564Y0010300D01*
X0288419Y0010237D01*
X0288273Y0010178D01*
X0288125Y0010122D01*
X0287976Y0010071D01*
X0287826Y0010023D01*
X0287675Y0009979D01*
X0287522Y0009938D01*
X0287369Y0009902D01*
X0287214Y0009869D01*
X0287059Y0009840D01*
X0286904Y0009816D01*
X0286747Y0009795D01*
X0286591Y0009778D01*
X0286433Y0009765D01*
X0286276Y0009756D01*
X0286118Y0009751D01*
X0285961Y0009750D01*
X0285803Y0009753D01*
X0285645Y0009760D01*
X0285488Y0009771D01*
X0285331Y0009786D01*
X0285174Y0009805D01*
X0285018Y0009828D01*
X0284863Y0009854D01*
X0284708Y0009885D01*
X0284554Y0009919D01*
X0284401Y0009958D01*
X0284249Y0010000D01*
X0284099Y0010046D01*
X0283949Y0010096D01*
X0283801Y0010150D01*
X0283654Y0010207D01*
X0283508Y0010268D01*
X0283365Y0010333D01*
X0283222Y0010401D01*
X0283082Y0010473D01*
X0282944Y0010548D01*
X0282807Y0010627D01*
X0282672Y0010709D01*
X0282540Y0010795D01*
X0282410Y0010884D01*
X0282282Y0010976D01*
X0282156Y0011072D01*
X0282033Y0011170D01*
X0281913Y0011272D01*
X0281795Y0011377D01*
X0281679Y0011484D01*
X0281567Y0011595D01*
X0281457Y0011708D01*
X0281350Y0011824D01*
X0281246Y0011942D01*
X0281145Y0012064D01*
X0281048Y0012187D01*
X0280953Y0012314D01*
X0280862Y0012442D01*
X0280773Y0012573D01*
X0280689Y0012706D01*
X0280607Y0012841D01*
X0280529Y0012978D01*
X0280455Y0013117D01*
X0280384Y0013258D01*
X0280316Y0013400D01*
X0280253Y0013545D01*
X0280192Y0013690D01*
X0280136Y0013838D01*
X0280083Y0013986D01*
X0280034Y0014136D01*
X0279989Y0014287D01*
X0279948Y0014440D01*
X0279910Y0014593D01*
X0279877Y0014747D01*
X0279847Y0014902D01*
X0279821Y0015057D01*
X0279800Y0015214D01*
X0279782Y0015370D01*
X0279768Y0015527D01*
X0279758Y0015685D01*
X0279752Y0015842D01*
X0279750Y0016000D01*
D11*
X0216000Y0016000D03*
X0216000Y0031000D03*
X0216000Y0046000D03*
X0236000Y0061000D03*
X0236000Y0076000D03*
X0221000Y0091000D03*
X0201000Y0088500D03*
X0186000Y0076000D03*
X0186000Y0061000D03*
X0166000Y0046000D03*
X0166000Y0031000D03*
X0166000Y0016000D03*
X0156000Y0016000D03*
X0111000Y0011000D03*
X0076000Y0036000D03*
X0076000Y0046000D03*
X0101000Y0046000D03*
X0111000Y0061000D03*
X0151000Y0088500D03*
X0131000Y0101000D03*
X0126000Y0116000D03*
X0126000Y0126000D03*
X0126000Y0141000D03*
X0126000Y0151000D03*
X0131000Y0161000D03*
X0161000Y0171000D03*
X0181000Y0161000D03*
X0186000Y0146000D03*
X0186000Y0136000D03*
X0214500Y0146000D03*
X0214500Y0156000D03*
X0221000Y0166000D03*
X0211000Y0171000D03*
X0271000Y0166000D03*
X0271000Y0106000D03*
X0271000Y0091000D03*
X0221000Y0106000D03*
X0181000Y0101000D03*
X0156000Y0066000D03*
X0101000Y0096000D03*
X0091000Y0096000D03*
X0091000Y0111000D03*
X0091000Y0126000D03*
X0041000Y0126000D03*
X0026000Y0131000D03*
X0011000Y0131000D03*
X0041000Y0111000D03*
X0041000Y0096000D03*
X0026000Y0081000D03*
X0011000Y0081000D03*
D12*
X0051000Y0019504D03*
X0136000Y0082496D03*
X0152496Y0186000D03*
D13*
X0089504Y0186000D03*
X0051000Y0082496D03*
X0136000Y0019504D03*
D14*
X0201000Y0155685D03*
D15*
X0201000Y0116315D03*
D16*
X0086039Y0141157D03*
X0086039Y0160843D03*
X0015961Y0160843D03*
X0015961Y0141157D03*
D17*
X0066000Y0186000D03*
X0016000Y0066000D03*
X0286000Y0046000D03*
D18*
X0286000Y0066000D03*
X0046000Y0186000D03*
X0016000Y0046000D03*
D19*
X0073126Y0071000D03*
X0233126Y0041000D03*
X0251000Y0078874D03*
D20*
X0251000Y0071000D03*
X0251000Y0063126D03*
X0248874Y0041000D03*
X0241000Y0041000D03*
X0088874Y0071000D03*
X0081000Y0071000D03*
D21*
X0091000Y0016000D03*
X0256000Y0016000D03*
D22*
X0246000Y0016000D03*
X0236000Y0016000D03*
X0081000Y0016000D03*
X0071000Y0016000D03*
D23*
X0226315Y0136000D03*
X0265685Y0126157D03*
X0265685Y0145843D03*
D24*
X0141000Y0114268D03*
D25*
X0151000Y0114268D03*
X0161000Y0114268D03*
X0171000Y0114268D03*
X0171000Y0147732D03*
X0161000Y0147732D03*
X0151000Y0147732D03*
X0141000Y0147732D03*
D26*
X0016000Y0146000D02*
X0015961Y0145961D01*
X0015961Y0141157D01*
X0246000Y0026000D02*
X0246000Y0016000D01*
X0246000Y0026000D02*
X0251000Y0031000D01*
X0256000Y0031000D01*
D27*
X0266000Y0031000D01*
X0281000Y0046000D01*
X0286000Y0046000D01*
X0286000Y0066000D02*
X0286000Y0151000D01*
X0271000Y0166000D01*
X0251000Y0186000D01*
X0152496Y0186000D01*
X0089504Y0186000D02*
X0086039Y0182535D01*
X0086039Y0160843D01*
X0086039Y0141157D01*
X0086197Y0141000D01*
X0096000Y0141000D01*
X0106000Y0131000D01*
X0106000Y0111000D01*
X0116000Y0101000D01*
X0116000Y0091000D01*
X0124504Y0082496D01*
X0136000Y0082496D01*
X0086000Y0096000D02*
X0086000Y0111000D01*
X0086000Y0121000D01*
X0076000Y0121000D01*
X0066000Y0131000D01*
X0066000Y0186000D01*
X0046000Y0186000D02*
X0046000Y0181000D01*
X0025843Y0160843D01*
X0015961Y0160843D01*
X0016000Y0160803D01*
X0016000Y0146000D01*
X0041000Y0126000D02*
X0041000Y0111000D01*
X0041000Y0096000D01*
X0021000Y0096000D01*
X0012500Y0087500D01*
X0012500Y0081000D01*
X0012500Y0069500D01*
X0016000Y0066000D01*
D28*
X0056000Y0066000D01*
X0068126Y0066000D01*
X0073126Y0071000D01*
X0081000Y0071000D02*
X0081000Y0081000D01*
X0091000Y0091000D01*
X0091000Y0096000D01*
X0101000Y0096000D01*
X0091000Y0096000D02*
X0086000Y0096000D01*
X0086000Y0111000D02*
X0091000Y0111000D01*
X0086000Y0121000D02*
X0091000Y0126000D01*
X0126000Y0151000D02*
X0137732Y0151000D01*
X0141000Y0147732D01*
X0141000Y0174504D01*
X0152496Y0186000D01*
X0161000Y0171000D02*
X0171000Y0161000D01*
X0171000Y0147732D01*
X0161000Y0147732D02*
X0161000Y0136000D01*
X0171000Y0136000D01*
X0181000Y0146000D01*
X0186000Y0146000D01*
X0186000Y0136000D02*
X0171000Y0121000D01*
X0171000Y0114268D01*
X0161000Y0114268D02*
X0174268Y0101000D01*
X0181000Y0101000D01*
X0181000Y0111000D01*
X0206000Y0136000D01*
X0226315Y0136000D01*
X0241157Y0145843D02*
X0265685Y0145843D01*
X0241157Y0145843D02*
X0221000Y0166000D01*
X0211000Y0156000D01*
X0206000Y0156000D01*
X0201315Y0156000D01*
X0201000Y0155685D01*
X0211000Y0156000D02*
X0214500Y0156000D01*
X0216000Y0166000D02*
X0221000Y0166000D01*
X0216000Y0166000D02*
X0211000Y0171000D01*
X0181000Y0161000D02*
X0171000Y0161000D01*
X0161000Y0136000D02*
X0161000Y0134268D01*
X0141000Y0114268D01*
X0141000Y0111000D01*
X0131000Y0101000D01*
X0144996Y0082496D02*
X0151000Y0088500D01*
X0144996Y0082496D02*
X0136000Y0082496D01*
X0101000Y0058874D02*
X0101000Y0046000D01*
X0091000Y0036000D01*
X0091000Y0016000D01*
X0076000Y0046000D02*
X0056000Y0066000D01*
X0088874Y0071000D02*
X0101000Y0058874D01*
X0166000Y0046000D02*
X0173500Y0038500D01*
X0230626Y0038500D01*
X0233126Y0041000D01*
X0236000Y0061000D02*
X0236000Y0076000D01*
X0243500Y0073500D02*
X0246000Y0071000D01*
X0251000Y0071000D01*
X0243500Y0073500D02*
X0243500Y0081000D01*
X0233500Y0091000D01*
X0248500Y0106000D01*
X0271000Y0106000D01*
X0271000Y0091000D02*
X0271000Y0078874D01*
X0273126Y0078874D01*
X0286000Y0066000D01*
X0271000Y0078874D02*
X0251000Y0078874D01*
X0233500Y0091000D02*
X0221000Y0091000D01*
X0238126Y0063126D02*
X0236000Y0061000D01*
X0238126Y0063126D02*
X0251000Y0063126D01*
X0186315Y0136000D02*
X0186000Y0136000D01*
X0012500Y0081000D02*
X0011000Y0081000D01*
M02*
