%
M48
M72
T01C0.02756
T02C0.03150
T03C0.03200
T04C0.03937
T05C0.04606
T06C0.04724
T07C0.05118
T08C0.05906
T09C0.12500
%
T01
X7313Y7100
X8100Y7100
X8887Y7100
X14100Y11427
X15100Y11427
X16100Y11427
X17100Y11427
X17100Y14773
X16100Y14773
X15100Y14773
X14100Y14773
X25100Y7887
X25100Y7100
X25100Y6313
X24887Y4100
X24100Y4100
X23313Y4100
T02
X20100Y11631
X20100Y15569
T03
X21450Y15600
X21450Y14600
X22100Y16600
X21100Y17100
X18100Y16100
X16100Y17100
X13100Y16100
X12600Y15100
X12600Y14100
X12600Y12600
X12600Y11600
X13100Y10100
X15100Y8850
X18100Y10100
X20100Y8850
X18600Y7600
X18600Y6100
X16600Y4600
X16600Y3100
X16600Y1600
X15600Y1600
X11100Y1100
X7600Y3600
X7600Y4600
X10100Y4600
X11100Y6100
X15600Y6600
X10100Y9600
X9100Y9600
X9100Y11100
X9100Y12600
X4100Y12600
X2600Y13100
X1100Y13100
X4100Y11100
X4100Y9600
X2600Y8100
X1100Y8100
X18600Y13600
X18600Y14600
X22100Y10600
X22100Y9100
X23600Y7600
X23600Y6100
X21600Y4600
X21600Y3100
X21600Y1600
X27100Y9100
X27100Y10600
X27100Y16600
T04
X25600Y1600
X24600Y1600
X23600Y1600
X9100Y1600
X8100Y1600
X7100Y1600
T05
X8604Y14116
X8604Y16084
X1596Y16084
X1596Y14116
T06
X22631Y13600
X26569Y12616
X26569Y14584
T07
X28600Y6600
X28600Y4600
X6600Y18600
X4600Y18600
X1600Y6600
X1600Y4600
T08
X5100Y1950
X13600Y1950
X13600Y8250
X5100Y8250
X8950Y18600
X15250Y18600
T09
X1600Y1600
X1600Y18600
X28600Y18600
X28600Y1600
M30
